<svg width="82" height="82" viewBox="0 0 82 82" fill="none" xmlns="http://www.w3.org/2000/svg">
<g clip-path="url(#clip0_1962_720)">
<path d="M50.6429 18.8367H50.7387C50.7389 18.8367 50.6642 18.6493 50.6429 18.8367Z" fill="#E2CB6C"/>
<path d="M27.5064 18.8367H27.6022C27.5809 18.6493 27.5064 18.8367 27.5064 18.8367Z" fill="#E2CB6C"/>
<path d="M73.7515 24.7356C73.2138 23.8773 72.3743 23.2798 71.3874 23.053L66.1892 21.8586L68.5893 21.1867C70.578 20.6302 71.7761 18.5062 71.2186 16.5138C70.6619 14.5251 68.5382 13.3273 66.5456 13.8845L55.3545 17.0167C55.0631 16.4866 54.6488 16.0329 54.1498 15.6952C56.4209 11.4686 59.6931 4.29594 59.6931 1.21021C59.6931 0.45763 58.9817 -0.124699 58.2435 0.0240865C53.8022 0.921284 49.6614 1.33529 45.5894 1.29093C41.4039 1.24496 36.1948 0.725092 32.9218 0.0268091C31.9099 -0.189082 31.0979 0.943225 31.6316 1.83273C32.4292 3.16203 32.9178 4.56757 33.1864 5.98415C29.0785 6.11004 24.8185 5.61227 21.5942 3.99997C20.7257 3.56563 19.7006 4.32557 19.8594 5.28123C20.8735 11.3651 22.9194 14.9321 24.9705 17.6271H24.925C22.8345 17.6271 21.1336 19.3279 21.1336 21.4184C21.1336 23.3411 22.5726 24.9329 24.4298 25.1765C23.076 27.444 21.1426 29.5954 19.1112 31.853C14.7913 36.6538 9.89481 42.0953 8.24744 50.8813C7.45915 55.0853 7.48542 59.0189 8.32576 62.5731C9.1102 65.8912 10.6043 68.8946 12.7663 71.4997C15.6361 74.9578 19.579 77.6409 24.4852 79.4751C28.9048 81.1271 33.9662 82.0002 39.1226 82.0002C44.279 82.0002 49.3406 81.1271 53.7599 79.4751C58.6662 77.6409 62.6091 74.9577 65.4789 71.4997C67.6409 68.8946 69.135 65.8914 69.9194 62.5731C70.7596 59.0189 70.786 55.0851 69.9977 50.8813C68.3504 42.0955 63.454 36.654 59.1341 31.8531C57.6676 30.2232 56.2723 28.6692 55.1025 27.092L69.6894 30.4434C71.2348 30.7985 72.8815 30.1225 73.7351 28.7871C74.5164 27.5645 74.521 25.9637 73.7515 24.7356ZM45.5628 3.71073C49.2885 3.75141 53.0592 3.42565 57.0422 2.71584C56.3119 5.70164 53.9667 11.0121 51.7423 15.0575C50.2008 15.1736 48.9141 16.215 48.4371 17.6269H45.0777C45.0018 17.4634 44.9177 17.2842 44.824 17.0851C43.7852 14.8768 41.6234 10.282 41.6234 6.37285C41.6234 5.6214 40.9138 5.03875 40.1761 5.18641C38.768 5.46813 37.2188 5.69603 35.6068 5.83889C35.4379 4.82926 35.1757 3.81804 34.7945 2.82346C38.0457 3.32668 42.1411 3.67309 45.5628 3.71073ZM53.4009 18.8367V23.9995C53.4009 24.7556 52.7857 25.3709 52.0294 25.3709C51.2732 25.3709 50.658 24.7558 50.658 23.9995V18.8367C50.658 18.0805 51.2732 17.4653 52.0294 17.4653C52.7857 17.4653 53.4009 18.0806 53.4009 18.8367ZM22.6801 7.06393C25.7051 8.09646 29.4264 8.55435 33.4452 8.41309L35.8434 8.26158C36.9746 8.1578 38.1222 8.00837 39.2784 7.81282C39.6557 11.5563 41.3659 15.403 42.405 17.6269H34.348H31.8025H28.0586C28.0316 17.5845 28.0024 17.5428 27.9696 17.5031C25.9457 15.0682 23.892 12.2519 22.6801 7.06393ZM57.3351 33.4715C61.4423 38.0357 66.097 43.2087 67.6194 51.3269C69.0203 58.7985 67.6735 65.0654 63.6166 69.9536C58.6143 75.9811 49.4576 79.5798 39.1227 79.5798C28.7878 79.5798 19.631 75.9812 14.6287 69.9537C10.5718 65.0656 9.2252 58.7987 10.6259 51.327C12.1482 43.2087 16.8032 38.0355 20.9102 33.4715C23.3659 30.7423 25.6859 28.1609 27.1728 25.2097H30.128C30.7965 25.2097 31.338 24.6679 31.338 23.9997C31.338 23.3314 30.7964 22.7897 30.128 22.7897H24.9249C24.1686 22.7897 23.5534 22.1745 23.5534 21.4183C23.5534 20.662 24.1686 20.0469 24.9249 20.0469H48.2379V22.7895H35.8956C35.2271 22.7895 34.6856 23.3314 34.6856 23.9995C34.6856 24.6677 35.2273 25.2095 35.8956 25.2095H48.437C48.9432 26.7083 50.3617 27.7909 52.0293 27.7909C52.2219 27.7909 52.4109 27.7762 52.5961 27.7485C53.9465 29.7019 55.5926 31.5352 57.3351 33.4715ZM55.821 19.3992L67.1977 16.2151C67.9181 16.0132 68.6868 16.4472 68.888 17.1661C69.0895 17.8867 68.6563 18.6551 67.937 18.8563L61.4353 20.676C61.3823 20.6909 61.3317 20.7101 61.2825 20.7314L55.821 19.4765V19.3992ZM71.8749 27.055C71.7055 27.792 70.9694 28.2541 70.2312 28.0845L55.7449 24.7561C55.7946 24.5115 55.8208 24.2585 55.8208 23.9994V21.9593L70.8453 25.4113C71.5735 25.5787 72.0423 26.3261 71.8749 27.055Z" fill="#E2CB6C"/>
<path d="M46.8668 49.7328C48.6014 49.7328 50.0129 48.3215 50.0129 46.5867V44.6507C50.0129 40.1234 46.6362 36.3703 42.2687 35.778V33.6798C42.2687 31.9452 40.8574 30.5337 39.1226 30.5337C37.3879 30.5337 35.9765 31.945 35.9765 33.6798V35.9382C31.4926 36.9384 28.2323 40.9245 28.2323 45.6187C28.2323 51.0898 32.6833 55.5409 38.1544 55.5409H40.0904C42.0919 55.5409 43.7205 57.1692 43.7205 59.171C43.7205 61.1728 42.092 62.8011 40.0904 62.8011H37.1863C35.7183 62.8011 34.5242 61.6068 34.5242 60.139C34.5242 58.4043 33.1129 56.9928 31.3781 56.9928C29.6434 56.9928 28.2319 58.4041 28.2319 60.139C28.2319 64.6663 31.6087 68.4194 35.9761 69.0116V71.1098C35.9761 72.8445 37.3874 74.256 39.1223 74.256C40.8569 74.256 42.2684 72.8447 42.2684 71.1098V68.8515C46.7523 67.8513 50.0126 63.8652 50.0126 59.171C50.0126 53.6999 45.5615 49.2488 40.0904 49.2488H38.1544C36.153 49.2488 34.5243 47.6205 34.5243 45.6187C34.5243 43.6169 36.1528 41.9886 38.1544 41.9886H41.0585C42.5265 41.9886 43.7207 43.1829 43.7207 44.6507V46.5867C43.7207 48.3213 45.1321 49.7328 46.8668 49.7328ZM41.0587 39.5686H38.1546C34.8185 39.5686 32.1045 42.2826 32.1045 45.6187C32.1045 48.9547 34.8185 51.6688 38.1546 51.6688H40.0906C44.2274 51.6688 47.5928 55.0343 47.5928 59.171C47.5928 62.9986 44.7261 66.2031 40.9251 66.6255C40.3124 66.6935 39.8487 67.2115 39.8487 67.8281V71.1098C39.8487 71.5101 39.523 71.8358 39.1227 71.8358C38.7225 71.8358 38.3967 71.5101 38.3967 71.1098V67.8832C38.3967 67.2148 37.8551 66.6732 37.1868 66.6732C33.5837 66.6732 30.6527 63.742 30.6527 60.1391C30.6527 59.7389 30.9785 59.4131 31.3787 59.4131C31.7789 59.4131 32.1047 59.7389 32.1047 60.1391C32.1047 62.9414 34.3845 65.2212 37.1868 65.2212H40.0909C43.4269 65.2212 46.141 62.5072 46.141 59.1711C46.141 55.8351 43.4269 53.1211 40.0909 53.1211H38.1549C34.0181 53.1211 30.6527 49.7555 30.6527 45.6188C30.6527 41.7913 33.5193 38.5867 37.3203 38.1644C37.9331 38.0963 38.3967 37.5783 38.3967 36.9617V33.68C38.3967 33.2797 38.7225 32.954 39.1227 32.954C39.523 32.954 39.8487 33.2797 39.8487 33.68V36.9066C39.8487 37.575 40.3904 38.1166 41.0587 38.1166C44.6618 38.1166 47.5928 41.0478 47.5928 44.6507V46.5867C47.5928 46.9869 47.267 47.3127 46.8668 47.3127C46.4666 47.3127 46.1408 46.9869 46.1408 46.5867V44.6507C46.1408 41.8484 43.861 39.5686 41.0587 39.5686Z" fill="#E2CB6C"/>
</g>
<defs>
<clipPath id="clip0_1962_720">
<rect width="82" height="82" fill="white"/>
</clipPath>
</defs>
</svg>
