<svg width="78" height="78" viewBox="0 0 78 78" fill="none" xmlns="http://www.w3.org/2000/svg">
<g clip-path="url(#clip0_1962_717)">
<path d="M74.853 7.69189H55.2619C54.7312 5.08743 52.423 3.12158 49.6641 3.12158H28.3359C25.577 3.12158 23.2688 5.08743 22.7381 7.69189H3.14696C1.41177 7.69189 0 9.10351 0 10.8384V60.1406C0 61.8757 1.41177 63.2872 3.14696 63.2872H30.571L29.0296 68.0229H25.8288C23.6412 68.0229 21.8612 69.8026 21.8612 71.9901C21.8612 73.5822 23.1567 74.8776 24.749 74.8776H53.2507C54.843 74.8776 56.1385 73.5824 56.1385 71.9901C56.1385 69.8026 54.3585 68.0229 52.1709 68.0229H48.9701L47.4287 63.2872H74.8527C76.5881 63.2872 77.9997 61.8755 77.9997 60.1406V10.8384C78 9.10351 76.5882 7.69189 74.853 7.69189ZM43.5673 5.40674H49.6641C51.554 5.40674 53.0918 6.94434 53.0918 8.83447C53.0918 10.7246 51.554 12.2622 49.6641 12.2622H43.5673C44.2862 11.3067 44.7129 10.1196 44.7129 8.83447C44.7129 7.5493 44.2862 6.36224 43.5673 5.40674ZM39 5.40674C40.89 5.40674 42.4277 6.94434 42.4277 8.83447C42.4277 10.7246 40.89 12.2622 39 12.2622C37.11 12.2622 35.5723 10.7246 35.5723 8.83447C35.5723 6.94434 37.11 5.40674 39 5.40674ZM28.3359 5.40674H34.4327C33.7138 6.36224 33.2871 7.5493 33.2871 8.83447C33.2871 10.1196 33.7138 11.3067 34.4327 12.2622H28.3359C26.446 12.2622 24.9082 10.7246 24.9082 8.83447C24.9082 6.94434 26.446 5.40674 28.3359 5.40674ZM52.171 70.3082C53.0988 70.3082 53.8535 71.0628 53.8535 71.9902C53.8535 72.3224 53.5833 72.5926 53.2508 72.5926H24.7492C24.4167 72.5926 24.1465 72.3225 24.1465 71.9902C24.1465 71.0628 24.9012 70.3082 25.829 70.3082H33.8668C34.4979 70.3082 35.0094 69.7967 35.0094 69.1656C35.0094 68.5346 34.4979 68.0231 33.8668 68.0231H31.4329L32.9743 63.2873H45.0258L46.5672 68.0231H39.1394C38.5082 68.0231 37.9968 68.5346 37.9968 69.1656C37.9968 69.7967 38.5082 70.3082 39.1394 70.3082H52.171ZM75.7148 16.8308H23.0039C22.3727 16.8308 21.8613 17.3424 21.8613 17.9734C21.8613 18.6044 22.3727 19.116 23.0039 19.116H75.7148V51.8632H67.0693C66.4382 51.8632 65.9268 52.3748 65.9268 53.0058C65.9268 53.6368 66.4382 54.1484 67.0693 54.1484H75.7148V60.1406C75.7148 60.6157 75.3282 61.002 74.853 61.002H3.14696C2.6718 61.002 2.28516 60.6155 2.28516 60.1406V54.1484H61.8124C62.4436 54.1484 62.955 53.6368 62.955 53.0058C62.955 52.3748 62.4436 51.8632 61.8124 51.8632H57.4459C56.6114 49.4551 54.5768 47.6046 52.0489 47.0327C52.0406 47.0307 52.0324 47.029 52.024 47.0274L43.3621 45.2702C43.2696 44.5633 43.2516 43.8604 43.3095 43.1182C46.3456 40.5793 47.8242 38.3297 47.8242 36.2513C47.8242 36.026 47.8151 35.804 47.7956 35.5772C47.7468 35.08 47.7192 32.7873 47.7288 30.0017C47.7366 27.7321 46.858 25.5962 45.2554 23.9876C43.6512 22.3777 41.516 21.4907 39.2431 21.4904C39.2427 21.4904 39.2422 21.4904 39.2418 21.4904C36.9688 21.4904 34.8332 22.3771 33.2288 23.9869C31.6255 25.5955 30.7468 27.7316 30.7545 30.0019C30.7641 32.789 30.7366 35.0836 30.6868 35.5933C30.6685 35.8004 30.6592 36.0217 30.6592 36.2512C30.6592 38.3269 32.1333 40.5725 35.1576 43.1042C35.2138 43.8303 35.1935 44.5173 35.0965 45.233L26.279 47.0267C26.2708 47.0284 26.2627 47.0301 26.2545 47.0321C23.7268 47.6044 21.6927 49.4553 20.8586 51.8632H2.28516V19.116H17.7744C18.4056 19.116 18.917 18.6044 18.917 17.9734C18.917 17.3424 18.4056 16.8308 17.7744 16.8308H2.28516V10.8384C2.28516 10.3634 2.6718 9.97705 3.14696 9.97705H22.7379C23.2687 12.5815 25.5768 14.5474 28.3358 14.5474H49.6639C52.4229 14.5474 54.731 12.5815 55.2618 9.97705H74.8527C75.3279 9.97705 75.7145 10.3635 75.7145 10.8384V16.8308H75.7148ZM33.0397 29.994C33.0341 28.3357 33.676 26.7752 34.8473 25.6001C36.02 24.4235 37.5805 23.7756 39.2418 23.7756H39.2428C40.9037 23.7759 42.4643 24.424 43.6367 25.6007C44.8076 26.7757 45.4493 28.336 45.4437 29.9938C45.4356 32.337 45.4519 35.0929 45.5202 35.7858C45.5327 35.9337 45.5391 36.0903 45.5391 36.2513C45.5391 37.6245 44.0968 39.5476 41.4759 41.6684C40.8493 42.1778 40.0599 42.4583 39.2474 42.4583C39.245 42.4583 39.2425 42.4583 39.2401 42.4583C38.4217 42.4586 37.635 42.1786 37.0032 41.6646C34.3857 39.547 32.9442 37.6244 32.9442 36.2513C32.9442 36.0885 32.9504 35.9344 32.9617 35.8053C33.0315 35.0963 33.0478 32.3385 33.0397 29.994ZM41.1397 45.8819C41.0831 45.9428 41.026 46.0041 40.9684 46.0652C40.4687 46.5976 39.86 46.8905 39.2474 46.8905C39.2442 46.8905 39.2409 46.8905 39.2375 46.8905C38.63 46.8905 38.0198 46.5968 37.5171 46.0607C37.4498 45.9893 37.383 45.9177 37.3171 45.8462C37.3911 45.3804 37.4373 44.9223 37.4587 44.464C38.0285 44.647 38.626 44.7433 39.2291 44.7433H39.252C39.8486 44.7433 40.4389 44.6497 41.0018 44.4719C41.0208 44.9433 41.0656 45.4105 41.1397 45.8819ZM35.6845 47.4454C35.7405 47.5057 35.7958 47.5662 35.8524 47.6261C36.7896 48.6256 37.9913 49.1756 39.2314 49.1756H39.2537C40.4981 49.1756 41.6986 48.6265 42.6329 47.6308C42.6796 47.5814 42.7251 47.5316 42.7713 47.4819L51.5568 49.2642C53.0327 49.6018 54.265 50.5678 54.96 51.8632H23.3445C24.0394 50.5675 25.2715 49.6012 26.7476 49.2635L35.6845 47.4454Z" fill="#E2CB6C"/>
</g>
<defs>
<clipPath id="clip0_1962_717">
<rect width="78" height="78" fill="white"/>
</clipPath>
</defs>
</svg>
