<svg width="77" height="77" viewBox="0 0 77 77" fill="none" xmlns="http://www.w3.org/2000/svg">
<g clip-path="url(#clip0_1962_697)">
<path d="M34.9828 37.3256C33.6913 38.6171 33.6913 40.7186 34.9828 42.0101C36.2741 43.3015 38.3756 43.3017 39.6674 42.0101C40.9588 40.7186 40.9588 38.6171 39.6674 37.3256C38.3756 36.034 36.2742 36.034 34.9828 37.3256ZM38.0723 38.9206C38.4844 39.3326 38.4844 40.0031 38.0723 40.415C37.6603 40.8271 36.9899 40.8271 36.5779 40.415C36.1658 40.003 36.1658 39.3326 36.5779 38.9206C36.9899 38.5085 37.6601 38.5085 38.0723 38.9206Z" fill="#E2CB6C"/>
<path d="M20.1586 76.9999C21.3099 76.9999 22.2604 76.6596 22.9534 75.9665C23.1815 75.7385 22.5541 76.5327 32.6123 63.4002V63.5264C32.6123 64.5173 33.7244 65.106 34.5431 64.5472L37.1503 62.7706C37.2569 62.698 37.3947 62.698 37.5013 62.7706L40.1078 64.5469C40.9271 65.106 42.0393 64.5179 42.0393 63.5266V60.556L43.3146 63.2381C43.7387 64.1311 44.9942 64.1897 45.4969 63.3312L47.0884 60.6071C47.1537 60.4957 47.2773 60.4363 47.4056 60.4564L50.5235 60.9414C51.5032 61.0921 52.2538 60.0857 51.8283 59.1902L46.3899 47.7535C46.7794 47.1953 47.301 46.7473 47.9209 46.4423L49.1465 45.8396C49.9677 45.4358 50.3333 44.477 50.0134 43.6372C53.0864 40.7706 56.3259 38.0298 59.6559 35.4794C76.8902 22.2795 75.7393 23.1801 75.9687 22.9509C77.4206 21.4991 77.3254 18.8853 75.7091 15.5647C75.8204 14.7668 75.6736 13.6891 75.018 12.2402C74.7611 11.6728 74.0931 11.4209 73.5255 11.6776C72.9579 11.9345 72.706 12.6026 72.9629 13.1701C73.6615 14.7138 73.4943 15.3855 73.3799 15.4998C73.3743 15.5053 73.3682 15.5106 73.3608 15.516C71.995 16.5123 68.792 15.7497 65.009 13.5793L65.5061 13.0824C66.0909 12.4973 66.097 11.5372 65.5194 10.9415C63.8922 9.26553 62.6098 7.4873 61.9084 5.93434C61.2136 4.39581 61.3807 3.72603 61.4939 3.61279C61.5121 3.59459 61.5344 3.5785 61.5604 3.56452C61.6129 3.55114 61.6643 3.53399 61.7142 3.51324C62.6209 3.34076 65.61 4.42138 69.0909 7.90235C69.4592 8.27077 69.8165 8.65078 70.1531 9.03199C70.5651 9.49892 71.2779 9.54328 71.745 9.13109C72.212 8.7189 72.2563 8.00611 71.8439 7.53918C71.4768 7.12323 71.0872 6.70894 70.686 6.30758C67.6735 3.29429 63.909 0.973643 61.4412 1.29019C58.1148 -0.331645 55.4964 -0.429241 54.0428 1.02462C53.9278 1.13966 53.8152 1.26944 53.7091 1.41546C40.5874 18.5477 40.7564 18.3591 39.1242 20.3641C38.5197 21.1067 39.0619 22.204 39.9982 22.204C40.3259 22.204 40.6507 22.062 40.8736 21.7882C42.5476 19.7319 42.524 19.7287 53.2727 5.69494C53.4415 6.35405 53.6753 6.99767 53.94 7.61813C55.7552 11.8731 59.6638 16.2642 63.2657 19.2038C49.259 29.9316 47.0046 31.5488 42.8098 35.2017C41.5236 33.6249 39.6413 32.6851 37.6075 32.6048C36.6144 31.3587 35.6859 30.0497 34.8372 28.6991C35.6679 27.812 36.4915 26.9081 37.293 26.0033C37.7061 25.5371 37.663 24.8243 37.1968 24.4112C36.7305 23.9981 36.0177 24.0413 35.6047 24.5075C34.8703 25.3365 34.1169 26.1649 33.3567 26.9799C32.5134 26.6585 31.5564 27.0292 31.1543 27.8468L30.5515 29.0724C30.0965 29.9977 29.3147 30.7083 28.3505 31.0738L27.6137 31.3529C26.6727 31.7091 26.2282 32.777 26.6212 33.6898C23.6589 36.4321 20.5404 39.0607 17.3403 41.5117C0.217278 54.6261 1.25173 53.8155 1.02722 54.0402C-0.348448 55.4157 -0.330853 57.8804 1.07684 60.9799C4.40984 68.3194 14.3332 76.9999 20.1586 76.9999ZM38.7717 60.9065C37.8935 60.308 36.7583 60.3082 35.8802 60.9065L34.868 61.5961V55.1577C34.868 54.5348 34.363 54.0298 33.7402 54.0298C33.1173 54.0298 32.6123 54.5348 32.6123 55.1577V59.6904C20.6953 75.2498 21.4239 74.306 21.3584 74.3714C20.5243 75.2054 17.7118 74.6794 13.9827 72.1842L32.6123 47.8602V49.8944C32.6123 50.5173 33.1173 51.0223 33.7402 51.0223C34.363 51.0223 34.868 50.5173 34.868 49.8944V46.2983C36.3879 46.859 38.137 46.9059 39.7838 46.2983V61.5961L38.7717 60.9065ZM47.7526 58.2275C46.7019 58.0637 45.6772 58.5517 45.1411 59.4692L44.5234 60.5267L42.0396 55.3034V44.9399C42.1655 44.8273 42.2817 44.7155 42.3933 44.6008L48.9627 58.4158L47.7526 58.2275ZM45.3339 45.5321L43.8468 42.4048C43.9094 42.2552 43.9665 42.1037 44.0184 41.951C45.0897 42.7549 46.1991 43.5128 47.335 44.2167C46.6637 44.547 46.0761 44.8179 45.3339 45.5321ZM74.1918 17.7173C74.9631 19.7248 74.8151 20.9148 74.374 21.3557C73.8256 21.9044 72.3137 21.9047 70.0285 20.8782L74.1918 17.7173ZM63.408 11.9907L63.0419 12.3566C61.3348 11.2161 59.5966 9.85622 57.904 8.33965L59.5626 6.15509C60.2568 8.03904 61.7156 10.1499 63.408 11.9907ZM59.2763 2.80195L56.2475 6.79105C56.1296 6.67601 56.012 6.56037 55.8949 6.44397C55.1719 4.63762 55.0702 3.18707 55.6377 2.61954C56.0787 2.17878 57.2686 2.03051 59.2763 2.80195ZM60.2726 13.17C63.0137 15.1771 66.711 17.3979 70.0636 18.0195L67.8396 19.7081C65.0868 18.0213 62.3941 15.6053 60.2726 13.17ZM65.1268 20.6194C66.9234 21.8868 69.1821 23.1843 71.2943 23.7245L58.2847 33.6885C54.8317 36.3333 51.4742 39.179 48.2944 42.1565C46.9442 41.3079 45.6353 40.3795 44.389 39.3864C44.3596 38.6434 44.2141 37.9041 43.9524 37.1987C48.2886 33.3958 50.3312 31.9514 65.1268 20.6194ZM40.7314 43.0732C38.8538 44.951 35.7981 44.951 33.9203 43.0732C32.0426 41.1953 32.0426 38.1399 33.9203 36.262C35.7981 34.3842 38.8537 34.3841 40.7314 36.262C42.6095 38.1399 42.6095 41.1955 40.7314 43.0732ZM29.1494 33.183C30.6503 32.6144 31.8671 31.5081 32.5755 30.0677L32.7769 29.6584C33.4809 30.7945 34.2388 31.904 35.0426 32.9752C33.2563 33.5813 31.8538 34.8573 31.0501 36.4068C30.3015 35.3734 29.6171 34.3332 28.9694 33.2511L29.1494 33.183ZM2.62214 55.6353C2.6877 55.5699 1.65701 56.3648 18.7116 43.3024C21.8439 40.9034 24.8993 38.3371 27.8103 35.6614C28.5772 36.8539 29.4034 38.0146 30.2779 39.1281C30.1293 41.0872 30.7911 43.0968 32.2636 44.6057L12.1578 70.8571C11.0737 70.0062 10.0054 69.0558 8.97158 68.022C3.25297 62.3032 1.39129 56.866 2.62214 55.6353Z" fill="#E2CB6C"/>
</g>
<defs>
<clipPath id="clip0_1962_697">
<rect width="77" height="77" fill="white"/>
</clipPath>
</defs>
</svg>
